# xmcd CD database file
#
# Track frame offsets:
#	150
#	11665
#	35597
#	59570
#	76705
#	109465
#	135365
#	161447
#	183692
#	213922
#	271660
#	290337
#
# Disc length: 4565 seconds
#
# Revision: 2
# Processed by: cddbd v1.5.1PL0 Copyright (c) Steve Scherf et al.
# Submitted via: ACXtractor (MTCDDB.DLL V2003.12.21)
#
DISCID=a311d30c
DTITLE=Stevie Ray Vaughan - Hello Y'a All
DYEAR=1994
DGENRE=Blues
TTITLE0=House Is A Rockin
TTITLE1=Tightrope
TTITLE2=Little Sister
TTITLE3=Let Me Love You
TTITLE4=Texas Flood
TTITLE5=Leave My Little Girl
TTITLE6=Wall Of Denial
TTITLE7=Superstition
TTITLE8=Cold Shot
TTITLE9=Life Without You
TTITLE10=Crossfire
TTITLE11=Voodoo Chile
EXTD=ID3G:   0 YEAR: 1994
EXTT0=
EXTT1=
EXTT2=
EXTT3=
EXTT4=
EXTT5=
EXTT6=
EXTT7=
EXTT8=
EXTT9=
EXTT10=
EXTT11=
PLAYORDER=
